<?xml version="1.0" encoding="utf-8"?>
<!-- Generator: Adobe Illustrator 26.4.1, SVG Export Plug-In . SVG Version: 6.00 Build 0)  -->
<!DOCTYPE svg PUBLIC "-//W3C//DTD SVG 1.1//EN" "http://www.w3.org/Graphics/SVG/1.1/DTD/svg11.dtd" [
	<!ENTITY ns_extend "http://ns.adobe.com/Extensibility/1.0/">
	<!ENTITY ns_ai "http://ns.adobe.com/AdobeIllustrator/10.0/">
	<!ENTITY ns_graphs "http://ns.adobe.com/Graphs/1.0/">
	<!ENTITY ns_vars "http://ns.adobe.com/Variables/1.0/">
	<!ENTITY ns_imrep "http://ns.adobe.com/ImageReplacement/1.0/">
	<!ENTITY ns_sfw "http://ns.adobe.com/SaveForWeb/1.0/">
	<!ENTITY ns_custom "http://ns.adobe.com/GenericCustomNamespace/1.0/">
	<!ENTITY ns_adobe_xpath "http://ns.adobe.com/XPath/1.0/">
]>
<svg version="1.1" id="Layer_1" xmlns:x="&ns_extend;" xmlns:i="&ns_ai;" xmlns:graph="&ns_graphs;"
	 xmlns="http://www.w3.org/2000/svg" xmlns:xlink="http://www.w3.org/1999/xlink" x="0px" y="0px" width="64px" height="64px"
	 viewBox="0 0 64 64" style="enable-background:new 0 0 64 64;" xml:space="preserve">
<style type="text/css">
	.st0{fill:#FFFFFF;}
</style>
<metadata>
	<sfw  xmlns="&ns_sfw;">
		<slices></slices>
		<sliceSourceBounds  bottomLeftOrigin="true" height="64" width="64" x="-4" y="428.1"></sliceSourceBounds>
	</sfw>
</metadata>
<g transform="translate(0 -540.36)">
	<g>
		<g>
			<path class="st0" d="M29.7,588.9l-2.6,2.6c-0.5,0.5-0.5,1.3,0,1.8c0.3,0.2,0.6,0.4,0.9,0.4s0.7-0.1,0.9-0.4l2.6-2.6
				c0.5-0.5,0.5-1.3,0-1.8C31,588.4,30.2,588.4,29.7,588.9z"/>
			<path class="st0" d="M51.1,588.9l-2.6,2.6c-0.5,0.5-0.5,1.3,0,1.8c0.3,0.2,0.6,0.4,0.9,0.4s0.7-0.1,0.9-0.4l2.6-2.6
				c0.5-0.5,0.5-1.3,0-1.8C52.4,588.4,51.6,588.4,51.1,588.9z"/>
			<path class="st0" d="M61.7,588.9l-2.6,2.6c-0.5,0.5-0.5,1.3,0,1.8c0.3,0.2,0.6,0.4,0.9,0.4c0.3,0,0.7-0.1,0.9-0.4l2.6-2.6
				c0.5-0.5,0.5-1.3,0-1.8C63.1,588.4,62.3,588.4,61.7,588.9z"/>
			<path class="st0" d="M19,588.9l-2.6,2.6c-0.5,0.5-0.5,1.3,0,1.8c0.3,0.2,0.6,0.4,0.9,0.4c0.3,0,0.7-0.1,0.9-0.4l2.6-2.6
				c0.5-0.5,0.5-1.3,0-1.8C20.3,588.4,19.5,588.4,19,588.9z"/>
			<path class="st0" d="M48.4,598.2l-2.6,2.7c-0.5,0.5-0.5,1.4,0,1.8c0.2,0.2,0.6,0.4,0.9,0.4l0,0c0.3,0,0.7-0.1,0.9-0.4l2.6-2.7
				c0.5-0.5,0.5-1.4,0-1.8C49.7,597.6,48.9,597.6,48.4,598.2z"/>
			<path class="st0" d="M59.1,598.2l-2.6,2.7c-0.5,0.5-0.5,1.4,0,1.8c0.2,0.2,0.6,0.4,0.9,0.4l0,0c0.4,0,0.7-0.1,0.9-0.4l2.6-2.7
				c0.5-0.5,0.5-1.4,0-1.8C60.4,597.6,59.6,597.6,59.1,598.2z"/>
			<path class="st0" d="M27,598.2l-2.6,2.7c-0.5,0.5-0.5,1.4,0,1.8c0.2,0.2,0.6,0.4,0.9,0.4l0,0c0.4,0,0.7-0.1,0.9-0.4l2.6-2.7
				c0.5-0.5,0.5-1.4,0-1.8C28.3,597.6,27.5,597.6,27,598.2z"/>
			<path class="st0" d="M42.5,593.8l-4.5,0.7l4.5-5.3c0.5-0.6,0.4-1.4-0.2-1.8c-0.6-0.5-1.4-0.4-1.8,0.2l-6.7,8
				c-0.3,0.4-0.4,1-0.1,1.5c0.3,0.5,0.8,0.7,1.4,0.6l4.5-0.7l-4.4,5.2c-0.5,0.6-0.4,1.4,0.2,1.8c0.2,0.2,0.5,0.3,0.8,0.3l0,0
				c0.4,0,0.7-0.2,1-0.5l6.6-7.9c0.3-0.4,0.4-1,0.1-1.5C43.6,594,43,593.8,42.5,593.8z"/>
			<path class="st0" d="M16.3,598.2l-2.6,2.7c-0.5,0.5-0.5,1.4,0,1.8c0.2,0.2,0.6,0.4,0.9,0.4l0,0c0.3,0,0.7-0.1,0.9-0.4l2.6-2.7
				c0.5-0.5,0.5-1.4,0-1.8C17.6,597.6,16.8,597.6,16.3,598.2z"/>
			<path class="st0" d="M52,585.6c6.7,0,12-5.3,12-12c0-3.2-1.2-6.2-3.5-8.5l0,0c-2.3-2.3-5.3-3.5-8.5-3.5c0,0-0.1,0-0.1,0
				c-0.8,0.1-2,0.2-3.1,0.5c-1.3-2.4-3.1-4.4-5.4-5.9c-2.6-1.7-5.7-2.6-8.7-2.6c-2.2,0-4.2,0.4-6.1,1.2c-1-1.8-2.6-3.3-4.5-4.2
				c-2.3-1.1-4.9-1.2-7.3-0.5c-2.4,0.7-4.5,2.3-5.8,4.5c-1.3,2.1-1.9,4.7-1.5,7.3c0.7,4.9,4.6,8.6,9.2,9.1c0.6,8.2,7.6,14.7,16,14.7
				L52,585.6L52,585.6z M18.7,568.3c-3.4-0.5-6.1-3.3-6.6-6.8c-0.6-4,1.7-7.7,5.5-8.8c0,0,0,0,0,0c3.4-1.1,6.9,0.3,8.7,3.4
				C22,558.6,19.1,563.1,18.7,568.3z M21.2,569.7c0-7.4,6-13.4,13.4-13.4c5.2,0,10.1,3.3,12.3,8.1c0.1,0.3,0.4,0.6,0.7,0.7
				c0.3,0.1,0.7,0.1,1,0c1.1-0.5,2.4-0.7,3.4-0.7c5.2,0,9.3,4.2,9.3,9.4c0,5.3-4.1,9.4-9.4,9.4l0,0H34.7
				C27.3,583,21.2,577,21.2,569.7z"/>
			<path class="st0" d="M19.9,546.9c0.7,0,1.3-0.6,1.3-1.3v-4c0-0.7-0.6-1.3-1.3-1.3c-0.7,0-1.3,0.6-1.3,1.3v4
				C18.6,546.4,19.2,546.9,19.9,546.9z"/>
			<path class="st0" d="M8.3,550.5c0.3,0.2,0.6,0.4,0.9,0.4c0.3,0,0.7-0.1,0.9-0.4c0.5-0.5,0.5-1.3,0-1.8l-2.6-2.6
				c-0.5-0.5-1.3-0.5-1.8,0c-0.5,0.5-0.5,1.3,0,1.8L8.3,550.5z"/>
			<path class="st0" d="M8.3,570.2l-2.6,2.6c-0.5,0.5-0.5,1.3,0,1.8c0.3,0.2,0.6,0.4,0.9,0.4c0.3,0,0.7-0.1,0.9-0.4l2.6-2.6
				c0.5-0.5,0.5-1.3,0-1.8C9.6,569.6,8.8,569.6,8.3,570.2z"/>
			<path class="st0" d="M6.6,559c0-0.7-0.6-1.3-1.3-1.3h-4c-0.7,0-1.3,0.6-1.3,1.3c0,0.7,0.6,1.3,1.3,1.3h4
				C6,560.3,6.6,559.7,6.6,559z"/>
			<path class="st0" d="M30.6,550.9c0.3,0,0.7-0.1,0.9-0.4l2.7-2.6c0.5-0.5,0.5-1.3,0-1.8s-1.3-0.5-1.8,0l-2.7,2.6
				c-0.5,0.5-0.5,1.3,0,1.8C29.9,550.8,30.3,550.9,30.6,550.9z"/>
		</g>
	</g>
</g>
</svg>
