<?xml version="1.0" encoding="utf-8"?>
<!-- Generator: Adobe Illustrator 26.4.1, SVG Export Plug-In . SVG Version: 6.00 Build 0)  -->
<!DOCTYPE svg PUBLIC "-//W3C//DTD SVG 1.1//EN" "http://www.w3.org/Graphics/SVG/1.1/DTD/svg11.dtd" [
	<!ENTITY ns_extend "http://ns.adobe.com/Extensibility/1.0/">
	<!ENTITY ns_ai "http://ns.adobe.com/AdobeIllustrator/10.0/">
	<!ENTITY ns_graphs "http://ns.adobe.com/Graphs/1.0/">
	<!ENTITY ns_vars "http://ns.adobe.com/Variables/1.0/">
	<!ENTITY ns_imrep "http://ns.adobe.com/ImageReplacement/1.0/">
	<!ENTITY ns_sfw "http://ns.adobe.com/SaveForWeb/1.0/">
	<!ENTITY ns_custom "http://ns.adobe.com/GenericCustomNamespace/1.0/">
	<!ENTITY ns_adobe_xpath "http://ns.adobe.com/XPath/1.0/">
]>
<svg version="1.1" id="Layer_1" xmlns:x="&ns_extend;" xmlns:i="&ns_ai;" xmlns:graph="&ns_graphs;"
	 xmlns="http://www.w3.org/2000/svg" xmlns:xlink="http://www.w3.org/1999/xlink" x="0px" y="0px" width="64px" height="64px"
	 viewBox="0 0 64 64" style="enable-background:new 0 0 64 64;" xml:space="preserve">
<style type="text/css">
	.st0{fill:#FFFFFF;}
</style>
<metadata>
	<sfw  xmlns="&ns_sfw;">
		<slices></slices>
		<sliceSourceBounds  bottomLeftOrigin="true" height="64" width="64" x="0" y="0"></sliceSourceBounds>
	</sfw>
</metadata>
<path class="st0" d="M32,0c-0.6,0-1,0.4-1,1v6c0,0.6,0.4,1,1,1s1-0.4,1-1V1C33,0.4,32.6,0,32,0z M21.2,4.1c-0.1,0-0.3,0-0.4,0.1
	C20.2,4.4,20,5,20.2,5.5l1.5,3.7c0.2,0.4,0.5,0.6,0.9,0.6c0.1,0,0.2,0,0.4-0.1c0.5-0.2,0.8-0.8,0.6-1.3l-1.5-3.7
	C21.9,4.4,21.5,4.1,21.2,4.1z M42.8,4.1c-0.4,0-0.8,0.2-0.9,0.6l-1.5,3.7c-0.2,0.5,0,1.1,0.6,1.3c0.1,0,0.2,0.1,0.4,0.1
	c0.4,0,0.8-0.2,0.9-0.6l1.5-3.7c0.2-0.5,0-1.1-0.6-1.3C43.1,4.1,43,4.1,42.8,4.1z M10.1,9.1c-0.3,0-0.5,0.1-0.7,0.3
	c-0.4,0.4-0.4,1,0,1.4l4.2,4.2c0.2,0.2,0.5,0.3,0.7,0.3c0.3,0,0.5-0.1,0.7-0.3c0.4-0.4,0.4-1,0-1.4l-4.2-4.2
	C10.6,9.2,10.3,9.1,10.1,9.1z M53.9,9.1c-0.3,0-0.5,0.1-0.7,0.3L49,13.6c-0.4,0.4-0.4,1,0,1.4c0.2,0.2,0.5,0.3,0.7,0.3
	c0.3,0,0.5-0.1,0.7-0.3l4.2-4.2c0.4-0.4,0.4-1,0-1.4C54.4,9.2,54.2,9.1,53.9,9.1z M32,10c-12.1,0-22,9.9-22,22s9.9,22,22,22
	s22-9.9,22-22S44.1,10,32,10z M32,12c11,0,20,9,20,20s-9,20-20,20s-20-9-20-20S21,12,32,12z M32,16c-4,0-7.8,1.5-10.8,4.2
	c-0.4,0.4-0.4,1-0.1,1.4c0.2,0.2,0.5,0.3,0.7,0.3c0.2,0,0.5-0.1,0.7-0.3c2.6-2.4,5.9-3.7,9.4-3.7c1.8,0,3.5,0.3,5.1,1
	c0.5,0.2,1.1-0.1,1.3-0.6s-0.1-1.1-0.6-1.3C36,16.4,34,16,32,16z M41.4,19.4c-0.3,0-0.5,0.2-0.7,0.4c-0.3,0.4-0.3,1.1,0.1,1.4
	c0.5,0.4,1,0.9,1.5,1.4c0.2,0.2,0.5,0.3,0.7,0.3c0.2,0,0.5-0.1,0.7-0.3c0.4-0.4,0.4-1,0.1-1.4c-0.5-0.6-1.1-1.1-1.7-1.6
	C41.9,19.4,41.6,19.3,41.4,19.4z M5.1,20.1c-0.4,0-0.8,0.2-0.9,0.6c-0.2,0.5,0,1.1,0.6,1.3l3.7,1.5c0.1,0.1,0.2,0.1,0.4,0.1
	c0.4,0,0.8-0.2,0.9-0.6c0.2-0.5,0-1.1-0.6-1.3l-3.7-1.5C5.4,20.2,5.2,20.1,5.1,20.1z M58.9,20.1c-0.1,0-0.3,0-0.4,0.1l-3.7,1.5
	c-0.5,0.2-0.8,0.8-0.6,1.3c0.2,0.4,0.5,0.6,0.9,0.6c0.1,0,0.3,0,0.4-0.1l3.7-1.5c0.5-0.2,0.8-0.8,0.6-1.3
	C59.7,20.4,59.3,20.1,58.9,20.1z M1,31c-0.6,0-1,0.4-1,1s0.4,1,1,1h6c0.6,0,1-0.4,1-1s-0.4-1-1-1H1z M57,31c-0.6,0-1,0.4-1,1
	s0.4,1,1,1h6c0.6,0,1-0.4,1-1s-0.4-1-1-1H57z M20,36.1c-0.1,0-0.3,0-0.4,0.1l-1.8,0.8c-0.5,0.2-0.7,0.8-0.5,1.3
	c0.2,0.4,0.5,0.6,0.9,0.6c0.1,0,0.3,0,0.4-0.1l1.8-0.8c0.5-0.2,0.7-0.8,0.5-1.3C20.8,36.3,20.4,36.1,20,36.1z M22.8,40.2
	c-0.3,0-0.5,0.1-0.7,0.3l-1.4,1.4c-0.4,0.4-0.4,1,0,1.4c0.2,0.2,0.4,0.3,0.7,0.3s0.5-0.1,0.7-0.3l1.4-1.4c0.4-0.4,0.4-1,0-1.4
	C23.3,40.3,23.1,40.2,22.8,40.2z M8.8,40.4c-0.1,0-0.3,0-0.4,0.1l-3.7,1.5c-0.5,0.2-0.8,0.8-0.6,1.3c0.2,0.4,0.5,0.6,0.9,0.6
	c0.1,0,0.3,0,0.4-0.1l3.7-1.5c0.5-0.2,0.8-0.8,0.6-1.3C9.6,40.6,9.2,40.4,8.8,40.4z M55.2,40.4c-0.4,0-0.8,0.2-0.9,0.6
	c-0.2,0.5,0,1.1,0.6,1.3l3.7,1.5c0.1,0.1,0.2,0.1,0.4,0.1c0.4,0,0.8-0.2,0.9-0.6c0.2-0.5,0-1.1-0.6-1.3l-3.7-1.5
	C55.4,40.4,55.3,40.4,55.2,40.4z M27.1,43.1c-0.4,0-0.8,0.2-0.9,0.6l-0.8,1.9c-0.2,0.5,0,1.1,0.6,1.3c0.1,0.1,0.2,0.1,0.4,0.1
	c0.4,0,0.8-0.2,0.9-0.6l0.8-1.9c0.2-0.5,0-1.1-0.6-1.3C27.4,43.1,27.2,43.1,27.1,43.1z M36.9,43.1c-0.1,0-0.3,0-0.4,0.1
	c-0.5,0.2-0.8,0.8-0.6,1.3l0.8,1.9c0.2,0.4,0.5,0.6,0.9,0.6c0.1,0,0.2,0,0.4-0.1c0.5-0.2,0.8-0.8,0.6-1.3l-0.8-1.9
	C37.6,43.3,37.3,43.1,36.9,43.1z M32,44c-0.6,0-1,0.4-1,1v2c0,0.6,0.4,1,1,1s1-0.4,1-1v-2C33,44.4,32.6,44,32,44z M14.3,48.7
	c-0.3,0-0.5,0.1-0.7,0.3l-4.2,4.2c-0.4,0.4-0.4,1,0,1.4c0.2,0.2,0.4,0.3,0.7,0.3c0.3,0,0.5-0.1,0.7-0.3l4.2-4.2c0.4-0.4,0.4-1,0-1.4
	C14.8,48.8,14.6,48.7,14.3,48.7z M49.7,48.7c-0.3,0-0.5,0.1-0.7,0.3c-0.4,0.4-0.4,1,0,1.4l4.2,4.2c0.2,0.2,0.4,0.3,0.7,0.3
	c0.3,0,0.5-0.1,0.7-0.3c0.4-0.4,0.4-1,0-1.4L50.4,49C50.2,48.8,49.9,48.7,49.7,48.7z M22.6,54.2c-0.4,0-0.8,0.2-0.9,0.6l-1.5,3.7
	c-0.2,0.5,0,1.1,0.6,1.3c0.1,0.1,0.2,0.1,0.4,0.1c0.4,0,0.8-0.2,0.9-0.6l1.5-3.7c0.2-0.5,0-1.1-0.6-1.3
	C22.9,54.2,22.8,54.2,22.6,54.2z M41.4,54.2c-0.1,0-0.3,0-0.4,0.1c-0.5,0.2-0.8,0.8-0.6,1.3l1.5,3.7c0.2,0.4,0.5,0.6,0.9,0.6
	c0.1,0,0.3,0,0.4-0.1c0.5-0.2,0.8-0.8,0.6-1.3l-1.5-3.7C42.1,54.4,41.8,54.2,41.4,54.2z M32,56c-0.6,0-1,0.4-1,1v6c0,0.6,0.4,1,1,1
	s1-0.4,1-1v-6C33,56.4,32.6,56,32,56z"/>
</svg>
